<?xml version="1.0" encoding="UTF-8" standalone="no"?>
<!DOCTYPE svg PUBLIC "-//W3C//DTD SVG 1.1//EN" "http://www.w3.org/Graphics/SVG/1.1/DTD/svg11.dtd">
<svg width="100%" height="100%" viewBox="0 0 420 66" version="1.1" xmlns="http://www.w3.org/2000/svg" xmlns:xlink="http://www.w3.org/1999/xlink" xml:space="preserve" xmlns:serif="http://www.serif.com/" style="fill-rule:evenodd;clip-rule:evenodd;stroke-miterlimit:10;">
    <g transform="matrix(0.901738,0,0,0.63216,-0.329174,-1.10245)">
        <rect x="4.6" y="58.4" width="450" height="41" style="fill:url(#_Linear1);"/>
        <path d="M5.1,58.9L454.1,58.9L454.1,98.9L5.1,98.9L5.1,58.9M4.1,57.9L4.1,99.9L455.1,99.9L455.1,57.9L4.1,57.9Z" style="fill-rule:nonzero;"/>
    </g>
    <g transform="matrix(0.901738,0,0,0.63216,-0.329174,-1.10245)">
        <path d="M428.6,50.8L428.6,44.2" style="fill:none;fill-rule:nonzero;stroke:white;stroke-width:1px;"/>
        <path d="M428.6,50.8L428.6,44.2" style="fill:none;fill-rule:nonzero;"/>
    </g>
    <g transform="matrix(0.901738,0,0,0.63216,-0.329174,-1.10245)">
        <path d="M454.6,50.8L454.6,44.2" style="fill:none;fill-rule:nonzero;stroke:white;stroke-width:1px;"/>
        <path d="M454.6,50.8L454.6,44.2" style="fill:none;fill-rule:nonzero;"/>
    </g>
    <g transform="matrix(0.344374,-0.678687,0.849618,0.2119,409.474,26.7321)">
        <text x="0px" y="0px" style="font-family:'ArialMT', 'Arial', sans-serif;font-size:10.531px;fill:white;stroke:white;stroke-width:0.5px;">40 ºF</text>
    </g>
    <g transform="matrix(0.901738,0,0,0.63216,-0.329174,-1.10245)">
        <path d="M400.5,51.3L400.5,44.7" style="fill:none;fill-rule:nonzero;stroke:white;stroke-width:1px;"/>
        <path d="M400.5,51.3L400.5,44.7" style="fill:none;fill-rule:nonzero;"/>
    </g>
    <g transform="matrix(0.901738,0,0,0.63216,-0.329174,-1.10245)">
        <path d="M373.7,50.9L373.7,44.3" style="fill:none;fill-rule:nonzero;stroke:white;stroke-width:1px;"/>
        <path d="M373.7,50.9L373.7,44.3" style="fill:none;fill-rule:nonzero;"/>
    </g>
    <g transform="matrix(0.901738,0,0,0.63216,-0.329174,-1.10245)">
        <path d="M346.7,50.8L346.7,44.2" style="fill:none;fill-rule:nonzero;stroke:white;stroke-width:1px;"/>
        <path d="M346.7,50.8L346.7,44.2" style="fill:none;fill-rule:nonzero;"/>
    </g>
    <g transform="matrix(0.901738,0,0,0.63216,-0.329174,-1.10245)">
        <path d="M319.5,51.1L319.5,44.5" style="fill:none;fill-rule:nonzero;stroke:white;stroke-width:1px;"/>
        <path d="M319.5,51.1L319.5,44.5" style="fill:none;fill-rule:nonzero;"/>
    </g>
    <g transform="matrix(0.901738,0,0,0.63216,-0.329174,-1.10245)">
        <path d="M292.4,51.2L292.4,44.6" style="fill:none;fill-rule:nonzero;stroke:white;stroke-width:1px;"/>
        <path d="M292.4,51.2L292.4,44.6" style="fill:none;fill-rule:nonzero;"/>
    </g>
    <g transform="matrix(0.901738,0,0,0.63216,-0.329174,-1.10245)">
        <path d="M265.7,51.3L265.7,44.7" style="fill:none;fill-rule:nonzero;stroke:white;stroke-width:1px;"/>
        <path d="M265.7,51.3L265.7,44.7" style="fill:none;fill-rule:nonzero;"/>
    </g>
    <g transform="matrix(0.901738,0,0,0.63216,-0.329174,-1.10245)">
        <path d="M238.6,51.9L238.6,45.3" style="fill:none;fill-rule:nonzero;stroke:white;stroke-width:1px;"/>
        <path d="M238.6,51.9L238.6,45.3" style="fill:none;fill-rule:nonzero;"/>
    </g>
    <g transform="matrix(0.901738,0,0,0.63216,-0.329174,-1.10245)">
        <path d="M211.5,50.9L211.5,44.3" style="fill:none;fill-rule:nonzero;stroke:white;stroke-width:1px;"/>
        <path d="M211.5,50.9L211.5,44.3" style="fill:none;fill-rule:nonzero;"/>
    </g>
    <g transform="matrix(0.901738,0,0,0.63216,-0.329174,-1.10245)">
        <path d="M184.5,51.1L184.5,44.5" style="fill:none;fill-rule:nonzero;stroke:white;stroke-width:1px;"/>
        <path d="M184.5,51.1L184.5,44.5" style="fill:none;fill-rule:nonzero;"/>
    </g>
    <g transform="matrix(0.901738,0,0,0.63216,-0.329174,-1.10245)">
        <path d="M130.7,52.1L130.7,45.5" style="fill:none;fill-rule:nonzero;stroke:white;stroke-width:1px;"/>
        <path d="M130.7,52.1L130.7,45.5" style="fill:none;fill-rule:nonzero;"/>
    </g>
    <g transform="matrix(0.901738,0,0,0.63216,-0.329174,-1.10245)">
        <path d="M103.4,51.9L103.4,45.3" style="fill:none;fill-rule:nonzero;stroke:white;stroke-width:1px;"/>
        <path d="M103.4,51.9L103.4,45.3" style="fill:none;fill-rule:nonzero;"/>
    </g>
    <g transform="matrix(0.901738,0,0,0.63216,-0.329174,-1.10245)">
        <path d="M75.4,51.2L75.4,44.6" style="fill:none;fill-rule:nonzero;stroke:white;stroke-width:1px;"/>
        <path d="M75.4,51.2L75.4,44.6" style="fill:none;fill-rule:nonzero;"/>
    </g>
    <g transform="matrix(0.342931,-0.679067,0.850069,0.210952,385.838,26.7321)">
        <text x="0px" y="0px" style="font-family:'ArialMT', 'Arial', sans-serif;font-size:10.531px;fill:white;stroke:white;stroke-width:0.5px;">45 ºF</text>
    </g>
    <g transform="matrix(0.348432,-0.677676,0.848356,0.214366,360.535,26.7321)">
        <text x="0px" y="0px" style="font-family:'ArialMT', 'Arial', sans-serif;font-size:10.531px;fill:white;stroke:white;stroke-width:0.5px;">50 ºF</text>
    </g>
    <g transform="matrix(0.36286,-0.673946,0.843667,0.223216,336.304,26.7321)">
        <text x="0px" y="0px" style="font-family:'ArialMT', 'Arial', sans-serif;font-size:10.531px;fill:white;stroke:white;stroke-width:0.5px;">55 ºF</text>
    </g>
    <g transform="matrix(0.271243,-0.694807,0.869727,0.166827,312.246,26.7321)">
        <text x="0px" y="0px" style="font-family:'ArialMT', 'Arial', sans-serif;font-size:10.531px;fill:white;stroke:white;stroke-width:0.5px;">60 ºF</text>
    </g>
    <g transform="matrix(0.348161,-0.677739,0.848356,0.214239,287.485,26.7321)">
        <text x="0px" y="0px" style="font-family:'ArialMT', 'Arial', sans-serif;font-size:10.531px;fill:white;stroke:white;stroke-width:0.5px;">65 ºF</text>
    </g>
    <g transform="matrix(0.351407,-0.676917,0.847364,0.216199,261.957,26.7321)">
        <text x="0px" y="0px" style="font-family:'ArialMT', 'Arial', sans-serif;font-size:10.531px;fill:white;stroke:white;stroke-width:0.5px;">70 ºF</text>
    </g>
    <g transform="matrix(0.351407,-0.676917,0.847364,0.216199,238.531,26.7321)">
        <text x="0px" y="0px" style="font-family:'ArialMT', 'Arial', sans-serif;font-size:10.531px;fill:white;stroke:white;stroke-width:0.5px;">75 ºF</text>
    </g>
    <g transform="matrix(0.351407,-0.676917,0.847364,0.216199,213.263,26.7321)">
        <text x="0px" y="0px" style="font-family:'ArialMT', 'Arial', sans-serif;font-size:10.531px;fill:white;stroke:white;stroke-width:0.5px;">80 ºF</text>
    </g>
    <g transform="matrix(0.351407,-0.676917,0.847364,0.216199,188.916,26.7321)">
        <text x="0px" y="0px" style="font-family:'ArialMT', 'Arial', sans-serif;font-size:10.531px;fill:white;stroke:white;stroke-width:0.5px;">85 ºF</text>
    </g>
    <g transform="matrix(0.351407,-0.676917,0.847364,0.216199,164.166,26.7321)">
        <text x="0px" y="0px" style="font-family:'ArialMT', 'Arial', sans-serif;font-size:10.531px;fill:white;stroke:white;stroke-width:0.5px;">90 ºF</text>
    </g>
    <g transform="matrix(0.351407,-0.676917,0.847364,0.216199,141.258,26.7321)">
        <text x="0px" y="0px" style="font-family:'ArialMT', 'Arial', sans-serif;font-size:10.531px;fill:white;stroke:white;stroke-width:0.5px;">95 ºF</text>
    </g>
    <g transform="matrix(0.351407,-0.676917,0.847364,0.216199,117.563,28.5074)">
        <text x="0px" y="0px" style="font-family:'ArialMT', 'Arial', sans-serif;font-size:10.531px;fill:white;stroke:white;stroke-width:0.5px;">100 ºF</text>
    </g>
    <g transform="matrix(0.351407,-0.676917,0.847364,0.216199,92.6025,28.3999)">
        <text x="0px" y="0px" style="font-family:'ArialMT', 'Arial', sans-serif;font-size:10.531px;fill:white;stroke:white;stroke-width:0.5px;">105 ºF</text>
    </g>
    <g transform="matrix(0.351407,-0.676917,0.847364,0.216199,67.5073,27.6465)">
        <text x="0px" y="0px" style="font-family:'ArialMT', 'Arial', sans-serif;font-size:10.531px;fill:white;stroke:white;stroke-width:0.5px;">1<tspan x="5.075px 10.932px " y="0px 0px ">10</tspan> ºF</text>
    </g>
    <g transform="matrix(0.351407,-0.676917,0.847364,0.216199,44.2155,28.5071)">
        <text x="0px" y="0px" style="font-family:'ArialMT', 'Arial', sans-serif;font-size:10.531px;fill:white;stroke:white;stroke-width:0.5px;">1<tspan x="5.075px 10.932px " y="0px 0px ">15</tspan> ºF</text>
    </g>
    <g transform="matrix(0.901738,0,0,0.63216,-0.329174,-1.10245)">
        <path d="M22.4,52.2L22.4,45.6" style="fill:none;fill-rule:nonzero;stroke:white;stroke-width:1px;"/>
        <path d="M22.4,52.2L22.4,45.6" style="fill:none;fill-rule:nonzero;"/>
    </g>
    <g transform="matrix(0.351407,-0.676917,0.847364,0.216199,19.5617,28.5076)">
        <text x="0px" y="0px" style="font-family:'ArialMT', 'Arial', sans-serif;font-size:10.531px;fill:white;stroke:white;stroke-width:0.5px;">120 ºF</text>
    </g>
    <g transform="matrix(0.901738,0,0,0.63216,-0.329174,-1.10245)">
        <path d="M157.5,51.1L157.5,44.5" style="fill:none;fill-rule:nonzero;stroke:white;stroke-width:1px;"/>
        <path d="M157.5,51.1L157.5,44.5" style="fill:none;fill-rule:nonzero;"/>
    </g>
    <g transform="matrix(0.901738,0,0,0.63216,-0.329174,-1.10245)">
        <path d="M49.3,52L49.3,45.4" style="fill:none;fill-rule:nonzero;stroke:white;stroke-width:1px;"/>
        <path d="M49.3,52L49.3,45.4" style="fill:none;fill-rule:nonzero;"/>
    </g>
    <defs>
        <linearGradient id="_Linear1" x1="0" y1="0" x2="1" y2="0" gradientUnits="userSpaceOnUse" gradientTransform="matrix(-450,5.51091e-14,-5.51091e-14,-450,451.495,78.8609)"><stop offset="0" style="stop-color:rgb(0,125,255);stop-opacity:1"/><stop offset="0.01" style="stop-color:rgb(4,129,255);stop-opacity:1"/><stop offset="0.02" style="stop-color:rgb(8,135,255);stop-opacity:1"/><stop offset="0.03" style="stop-color:rgb(12,138,255);stop-opacity:1"/><stop offset="0.04" style="stop-color:rgb(16,142,255);stop-opacity:1"/><stop offset="0.05" style="stop-color:rgb(20,146,255);stop-opacity:1"/><stop offset="0.07" style="stop-color:rgb(25,151,255);stop-opacity:1"/><stop offset="0.08" style="stop-color:rgb(29,155,255);stop-opacity:1"/><stop offset="0.09" style="stop-color:rgb(33,159,255);stop-opacity:1"/><stop offset="0.1" style="stop-color:rgb(37,164,255);stop-opacity:1"/><stop offset="0.11" style="stop-color:rgb(41,168,255);stop-opacity:1"/><stop offset="0.13" style="stop-color:rgb(45,172,255);stop-opacity:1"/><stop offset="0.14" style="stop-color:rgb(50,177,255);stop-opacity:1"/><stop offset="0.15" style="stop-color:rgb(54,181,255);stop-opacity:1"/><stop offset="0.16" style="stop-color:rgb(58,185,255);stop-opacity:1"/><stop offset="0.17" style="stop-color:rgb(62,190,255);stop-opacity:1"/><stop offset="0.18" style="stop-color:rgb(66,194,255);stop-opacity:1"/><stop offset="0.2" style="stop-color:rgb(70,198,255);stop-opacity:1"/><stop offset="0.21" style="stop-color:rgb(75,203,255);stop-opacity:1"/><stop offset="0.22" style="stop-color:rgb(79,207,255);stop-opacity:1"/><stop offset="0.23" style="stop-color:rgb(83,211,255);stop-opacity:1"/><stop offset="0.25" style="stop-color:rgb(87,216,255);stop-opacity:1"/><stop offset="0.26" style="stop-color:rgb(91,220,255);stop-opacity:1"/><stop offset="0.28" style="stop-color:rgb(95,224,255);stop-opacity:1"/><stop offset="0.29" style="stop-color:rgb(100,229,255);stop-opacity:1"/><stop offset="0.3" style="stop-color:rgb(104,233,255);stop-opacity:1"/><stop offset="0.31" style="stop-color:rgb(108,233,255);stop-opacity:1"/><stop offset="0.32" style="stop-color:rgb(112,242,255);stop-opacity:1"/><stop offset="0.33" style="stop-color:rgb(116,246,255);stop-opacity:1"/><stop offset="0.34" style="stop-color:rgb(120,250,255);stop-opacity:1"/><stop offset="0.35" style="stop-color:rgb(125,255,255);stop-opacity:1"/><stop offset="0.37" style="stop-color:rgb(138,255,242);stop-opacity:1"/><stop offset="0.38" style="stop-color:rgb(151,255,229);stop-opacity:1"/><stop offset="0.39" style="stop-color:rgb(164,255,216);stop-opacity:1"/><stop offset="0.4" style="stop-color:rgb(177,255,203);stop-opacity:1"/><stop offset="0.41" style="stop-color:rgb(190,255,190);stop-opacity:1"/><stop offset="0.43" style="stop-color:rgb(203,255,177);stop-opacity:1"/><stop offset="0.44" style="stop-color:rgb(216,255,164);stop-opacity:1"/><stop offset="0.45" style="stop-color:rgb(229,255,151);stop-opacity:1"/><stop offset="0.46" style="stop-color:rgb(242,255,138);stop-opacity:1"/><stop offset="0.48" style="stop-color:rgb(255,255,125);stop-opacity:1"/><stop offset="0.49" style="stop-color:rgb(255,242,112);stop-opacity:1"/><stop offset="0.5" style="stop-color:rgb(255,229,100);stop-opacity:1"/><stop offset="0.51" style="stop-color:rgb(255,216,87);stop-opacity:1"/><stop offset="0.52" style="stop-color:rgb(255,203,75);stop-opacity:1"/><stop offset="0.54" style="stop-color:rgb(255,190,62);stop-opacity:1"/><stop offset="0.55" style="stop-color:rgb(255,177,50);stop-opacity:1"/><stop offset="0.56" style="stop-color:rgb(255,164,37);stop-opacity:1"/><stop offset="0.57" style="stop-color:rgb(255,151,25);stop-opacity:1"/><stop offset="0.59" style="stop-color:rgb(255,138,12);stop-opacity:1"/><stop offset="0.59" style="stop-color:rgb(255,125,0);stop-opacity:1"/><stop offset="0.61" style="stop-color:rgb(255,120,0);stop-opacity:1"/><stop offset="0.62" style="stop-color:rgb(255,116,0);stop-opacity:1"/><stop offset="0.63" style="stop-color:rgb(255,112,0);stop-opacity:1"/><stop offset="0.64" style="stop-color:rgb(255,108,0);stop-opacity:1"/><stop offset="0.65" style="stop-color:rgb(255,104,0);stop-opacity:1"/><stop offset="0.67" style="stop-color:rgb(255,100,0);stop-opacity:1"/><stop offset="0.68" style="stop-color:rgb(255,95,0);stop-opacity:1"/><stop offset="0.69" style="stop-color:rgb(255,91,0);stop-opacity:1"/><stop offset="0.7" style="stop-color:rgb(255,87,0);stop-opacity:1"/><stop offset="0.71" style="stop-color:rgb(255,83,0);stop-opacity:1"/><stop offset="0.72" style="stop-color:rgb(255,79,0);stop-opacity:1"/><stop offset="0.73" style="stop-color:rgb(255,75,0);stop-opacity:1"/><stop offset="0.75" style="stop-color:rgb(255,70,0);stop-opacity:1"/><stop offset="0.76" style="stop-color:rgb(255,66,0);stop-opacity:1"/><stop offset="0.77" style="stop-color:rgb(255,62,0);stop-opacity:1"/><stop offset="0.78" style="stop-color:rgb(255,58,0);stop-opacity:1"/><stop offset="0.79" style="stop-color:rgb(255,54,0);stop-opacity:1"/><stop offset="0.8" style="stop-color:rgb(255,50,0);stop-opacity:1"/><stop offset="0.82" style="stop-color:rgb(255,45,0);stop-opacity:1"/><stop offset="0.83" style="stop-color:rgb(255,41,0);stop-opacity:1"/><stop offset="0.84" style="stop-color:rgb(255,37,0);stop-opacity:1"/><stop offset="0.85" style="stop-color:rgb(255,33,0);stop-opacity:1"/><stop offset="0.86" style="stop-color:rgb(255,29,0);stop-opacity:1"/><stop offset="0.88" style="stop-color:rgb(255,25,0);stop-opacity:1"/><stop offset="0.89" style="stop-color:rgb(255,20,0);stop-opacity:1"/><stop offset="0.9" style="stop-color:rgb(255,16,0);stop-opacity:1"/><stop offset="0.92" style="stop-color:rgb(255,12,0);stop-opacity:1"/><stop offset="0.93" style="stop-color:rgb(255,8,0);stop-opacity:1"/><stop offset="0.94" style="stop-color:rgb(255,4,0);stop-opacity:1"/><stop offset="0.95" style="stop-color:rgb(255,0,0);stop-opacity:1"/><stop offset="1" style="stop-color:rgb(255,0,0);stop-opacity:1"/></linearGradient>
    </defs>
</svg>
