<svg version="1.1" id="Layer_1" xmlns="http://www.w3.org/2000/svg" xmlns:xlink="http://www.w3.org/1999/xlink" x="0px" y="0px"
	 viewBox="0 0 500 500" style="enable-background:new 0 0 500 500;" xml:space="preserve">
<style type="text/css">
	.st0{fill:#263F78;}
	.st1{fill:#007EC6;}
	.st2{fill:#FFFFFF;}
</style>
<g id="XMLID_1_">
	<path id="XMLID_3_" class="st0" d="M323.6,111.6c-3.2-1.7-30.2-18-71.7-18.6c-90,0.3-129.6,66.3-129.6,66.3
		c19.9,9.8,40.6,39.1,40.8,39.5c22.3,31.2,53.3,79.7,93.5,80.6c12.9,0.3,21.4-7.4,31.2-16.9c35.7-34.6,40.7-98.5,86.4-107.5
		C374.3,155.1,357.3,129.6,323.6,111.6z"/>
	<path id="XMLID_4_" class="st1" d="M390.5,180.5c0.1,0,19.3,38,15.9,78.5c-1.9,68-62,145.1-151.5,147.6l-12.5-0.3
		c-92.3-4.6-149-82.9-148.7-153.7c0.2-13.2,0.2-27.9,5.7-46l5.7,1.7c23.7,8.9,49.2,78,132.1,82c3.6,0.2,10.5,0.3,10.5,0.4
		c-5.4,5.4-35.9,18-49.8,21.3c3.6-0.9-0.3-0.1,0,0c33.4,20.7,66.7-19.1,110-25l13.3-0.8c-2.5-8-14-7.3-15-7.2
		c-30,3-22.5-0.5-23.4-0.2c46-14.4,72.6-51.3,105.7-96.2L390.5,180.5z"/>
	<path id="XMLID_5_" class="st2" d="M223.9,153.9h10.7c4.3,0,7.8,3.5,7.8,7.8v25.7c0,4.3-3.5,7.8-7.8,7.8h-10.7
		c-4.3,0-7.8-3.5-7.8-7.8v-25.7C216.1,157.4,219.6,153.9,223.9,153.9z"/>
	<path id="XMLID_6_" class="st0" d="M226.7,161h5c1,0,1.8,0.8,1.8,1.8v23.5c0,1-0.8,1.8-1.8,1.8h-5c-1,0-1.8-0.8-1.8-1.8v-23.5
		C224.9,161.8,225.7,161,226.7,161z"/>
	<path id="XMLID_7_" class="st2" d="M257.7,153.9c-4.3,0-7.8,3.5-7.8,7.8v33.5h8.8v-16.6h8.6v16.6h8.8v-33.5c0-4.3-3.5-7.8-7.8-7.8
		H257.7z"/>
	<path id="XMLID_8_" class="st0" d="M260.6,161h5c1,0,1.8,0.8,1.8,1.8v8.8h-8.6v-8.8C258.8,161.8,259.6,161,260.6,161z"/>
	<path id="XMLID_9_" class="st2" d="M291.5,153.9c-4.3,0-7.8,3.5-7.8,7.8v33.5h8.8v-16.6h8.6v16.6h8.8v-33.5c0-4.3-3.5-7.8-7.8-7.8
		H291.5z"/>
	<path id="XMLID_10_" class="st0" d="M294.4,161h5c1,0,1.8,0.8,1.8,1.8v8.8h-8.6v-8.8C292.6,161.8,293.4,161,294.4,161z"/>
	<path id="XMLID_11_" class="st2" d="M182.3,153.9v41.3h8.9v-32.4c0-1,0.8-1.8,1.8-1.8h5c1,0,1.8,0.8,1.8,1.8v32.4h8.8v-33.5
		c0-4.3-3.5-7.8-7.8-7.8H182.3z"/>
	<path id="XMLID_71_" class="st0" d="M93.9,305.5l-15.8,4.9l-0.7-2.3l9.1-10.9c0.2-0.2,0.4-0.5,0.6-0.6c0.2-0.2,0.4-0.4,0.5-0.5
		l-12.8,4l-0.6-2l15.8-4.9l0.7,2.3l-9.3,11.1c-0.1,0.2-0.3,0.3-0.5,0.5c-0.2,0.2-0.3,0.3-0.5,0.5l12.8-4L93.9,305.5z M81.8,288.2
		l-1.1-5l-6.6,4L81.8,288.2z M89.5,291.5l-17.4-2.6l-0.5-2.4l14.9-9.4l0.5,2.4l-4.5,2.7l1.3,6.4l5.2,0.7L89.5,291.5z M85.9,271.7
		l-14.4,1.8l0.6,5.2l-2,0.2l-1.6-12.6l2-0.2l0.6,5.2l14.4-1.8L85.9,271.7z M84.9,262.3l-16.5,1.1l-0.2-2.2l16.5-1.1L84.9,262.3z
		 M76.2,254.8c2.1,0,3.8-0.5,5-1.4c1.2-1,1.8-2.3,1.8-4c0-1.7-0.6-3.1-1.8-4c-1.2-1-2.8-1.5-5-1.5c-2.1,0-3.8,0.5-5,1.4
		c-1.2,1-1.8,2.3-1.8,4c0,1.7,0.6,3.1,1.8,4.1C72.4,254.3,74.1,254.8,76.2,254.8z M76.2,257.1c-2.7,0-4.9-0.7-6.4-2.1
		c-1.5-1.4-2.3-3.3-2.3-5.8c0-2.4,0.8-4.4,2.3-5.7c1.5-1.4,3.7-2.1,6.4-2c2.7,0,4.9,0.7,6.4,2.1c1.5,1.4,2.3,3.3,2.3,5.7
		c0,2.4-0.8,4.4-2.3,5.7C81,256.4,78.9,257.1,76.2,257.1z M84.7,238.7l-16.4-1.7l0.3-2.4l12.7-6.4c0.3-0.1,0.5-0.3,0.8-0.4
		c0.2-0.1,0.5-0.2,0.7-0.2l-13.3-1.4l0.2-2.1l16.4,1.7l-0.3,2.4l-12.9,6.6c-0.2,0.1-0.4,0.2-0.6,0.3c-0.2,0.1-0.4,0.2-0.7,0.2
		l13.3,1.4L84.7,238.7z M80.5,218l1-5l-7.6,1.1L80.5,218z M86.3,224l-15-9.3l0.5-2.4l17.4-2.8l-0.5,2.4l-5.2,0.7l-1.3,6.4l4.5,2.7
		L86.3,224z M89.7,208l-15.9-4.6l0.6-2.2l13.9,4l2.3-7.9l2,0.6L89.7,208z M88.4,185.5c1.9,0.8,3.6,1.1,5.1,0.6
		c1.5-0.4,2.6-1.4,3.3-3c0.7-1.6,0.7-3,0-4.4c-0.7-1.4-2-2.5-4-3.3c-1.9-0.8-3.7-1.1-5.1-0.7c-1.5,0.4-2.6,1.4-3.2,3
		c-0.7,1.6-0.7,3.1,0,4.4C85.1,183.5,86.5,184.7,88.4,185.5z M87.5,187.6c-2.5-1.1-4.2-2.6-5-4.5c-0.9-1.9-0.8-3.9,0.2-6.2
		c1-2.2,2.4-3.7,4.4-4.3c2-0.7,4.2-0.4,6.7,0.7c2.5,1.1,4.2,2.6,5,4.4c0.9,1.9,0.8,3.9-0.2,6.2c-1,2.2-2.4,3.7-4.4,4.4
		C92.2,188.9,90,188.7,87.5,187.6z M102.9,161l1.1-1.9c1.7,1.1,2.8,2.5,3.2,4.2c0.4,1.7,0.1,3.4-0.9,5.2c-1.1,2-2.7,3.2-4.8,3.6
		c-2,0.4-4.3-0.1-6.7-1.5c-2.3-1.3-3.7-2.9-4.3-4.8c-0.6-2-0.4-3.9,0.8-6c0.9-1.6,2.1-2.7,3.5-3.3c1.4-0.6,2.9-0.5,4.5,0.1l-1.1,1.9
		c-1.1-0.4-2-0.3-2.9,0.1c-0.9,0.4-1.7,1.1-2.3,2.2c-0.8,1.5-1,2.9-0.4,4.3c0.6,1.4,1.8,2.6,3.6,3.6c1.8,1,3.4,1.4,4.9,1.1
		c1.5-0.2,2.7-1,3.5-2.4c0.7-1.2,0.8-2.3,0.5-3.5C104.9,162.7,104.1,161.7,102.9,161z M110.8,159.9l-13.6-9.4l6.7-9.7l1.7,1.2
		l-5.4,7.8l4,2.8l5-7.2l1.6,1.1l-5,7.2l4.5,3.2l5.6-8l1.7,1.2L110.8,159.9z M115.9,141.3l3.3-3.9l-7.2-2.7L115.9,141.3z
		 M118.1,149.4l-8.7-15.3l1.6-1.9l16.6,5.8l-1.6,1.9l-4.9-1.8l-4.2,5l2.7,4.5L118.1,149.4z M128.8,136.9l-11.6-11.7l1.7-1.7
		l13.9,3.1c0.3,0.1,0.6,0.1,0.8,0.2c0.3,0.1,0.5,0.2,0.7,0.2l-9.4-9.5l1.5-1.5l11.6,11.7l-1.7,1.7l-14.2-3.1c-0.2,0-0.4-0.1-0.6-0.2
		c-0.2-0.1-0.4-0.2-0.7-0.3l9.4,9.5L128.8,136.9z M140.7,125.4l-10.8-12.5l1.7-1.5l10.8,12.5L140.7,125.4z M150.6,109.6l1.7-1.3
		c1.1,1.7,1.6,3.3,1.3,5.1c-0.3,1.7-1.2,3.2-2.9,4.4c-1.9,1.4-3.8,1.9-5.8,1.4c-2-0.5-3.9-1.8-5.5-4c-1.6-2.1-2.2-4.1-2.1-6.2
		c0.2-2,1.2-3.8,3.1-5.2c1.5-1.1,3-1.7,4.5-1.6c1.5,0,2.9,0.7,4,1.9l-1.8,1.3c-0.8-0.7-1.7-1.1-2.7-1.1c-1,0-2,0.4-3,1.1
		c-1.3,1-2,2.3-2,3.8c0,1.5,0.6,3.1,1.9,4.8c1.2,1.6,2.6,2.6,4.1,3c1.5,0.4,2.9,0.1,4.1-0.8c1.1-0.8,1.7-1.8,1.9-3
		C151.7,111.9,151.4,110.8,150.6,109.6z M162.8,101l4.5-2.5l-5.8-5.1L162.8,101z M162,109.3l-2.8-17.4l2.2-1.2l13.5,11.3l-2.1,1.2
		l-4-3.4l-5.6,3.2l0.9,5.2L162,109.3z M176.3,101.3l-6.8-15l2.2-1l11.9,7.8c0.3,0.2,0.5,0.3,0.7,0.5c0.2,0.2,0.4,0.3,0.5,0.5
		l-5.5-12.2l2-0.9l6.8,15l-2.2,1l-12.2-7.9c-0.2-0.1-0.4-0.3-0.5-0.4c-0.2-0.1-0.3-0.3-0.5-0.5l5.5,12.2L176.3,101.3z M192.7,78.9
		l-3.7,1.2l4,11.9l3.7-1.2c1.6-0.5,2.6-1.4,3-2.7c0.5-1.3,0.4-2.9-0.3-4.9c-0.6-1.9-1.5-3.2-2.7-4C195.5,78.5,194.2,78.3,192.7,78.9
		z M191.5,94.6L186.3,79l6-2c2.2-0.7,4.1-0.6,5.7,0.3c1.6,0.9,2.8,2.6,3.6,5.1c0.9,2.5,0.9,4.7,0.2,6.5c-0.7,1.8-2.2,3.1-4.3,3.8
		L191.5,94.6z M214.6,80.9l5-1l-3.9-6.7L214.6,80.9z M211.3,88.5l2.9-17.4l2.4-0.5l9.2,15l-2.4,0.5l-2.7-4.5l-6.4,1.2l-0.8,5.2
		L211.3,88.5z M231.1,85.2l-1.6-14.4l-5.2,0.6l-0.2-2l12.6-1.4l0.2,2l-5.2,0.6l1.6,14.4L231.1,85.2z M242.4,70.1l0.2,14.1l-2.1,0
		l-0.2-16.5l3.2,0l4.2,12.6c0.1,0.4,0.2,0.6,0.3,0.8c0.1,0.2,0.1,0.4,0.1,0.5c0.1-0.3,0.1-0.5,0.2-0.7s0.1-0.4,0.2-0.6l4.1-12.7
		l3.2,0L256,84l-2.2,0l-0.2-14.1c0,0.2-0.1,0.5-0.2,0.7c-0.1,0.2-0.1,0.5-0.2,0.7l-4.1,12.7l-2.1,0l-4.3-12.6
		c-0.1-0.2-0.1-0.4-0.2-0.7C242.5,70.6,242.4,70.4,242.4,70.1z M261.9,76.1c-0.2,2.1,0.1,3.8,1,5.1c0.9,1.3,2.1,2,3.9,2.2
		c1.7,0.2,3.1-0.3,4.2-1.4c1.1-1.1,1.7-2.7,1.9-4.8c0.2-2.1-0.1-3.8-1-5.1c-0.8-1.3-2.1-2-3.8-2.2c-1.7-0.2-3.1,0.3-4.2,1.4
		C262.8,72.4,262.1,74,261.9,76.1z M259.6,75.9c0.3-2.7,1.2-4.8,2.7-6.2c1.5-1.4,3.5-2,6-1.7c2.4,0.2,4.3,1.2,5.5,2.8
		c1.2,1.7,1.7,3.8,1.4,6.6c-0.3,2.7-1.2,4.8-2.7,6.2c-1.5,1.4-3.5,2-5.9,1.7c-2.4-0.2-4.3-1.2-5.5-2.9
		C259.8,80.8,259.3,78.6,259.6,75.9z M277.5,80.7l2.1,0.4c-0.2,1.2,0,2.2,0.6,3c0.6,0.8,1.6,1.4,2.8,1.6c1.3,0.2,2.3,0.2,3.1-0.2
		c0.8-0.4,1.3-1,1.5-1.9c0.2-1.2-0.9-2.4-3.5-3.6c-0.2-0.1-0.3-0.1-0.4-0.2c-2.1-1-3.4-1.8-4-2.6c-0.6-0.8-0.8-1.8-0.5-2.9
		c0.3-1.4,1-2.5,2.3-3.2c1.2-0.7,2.7-0.8,4.5-0.5c1.8,0.4,3.1,1.1,3.9,2.2c0.8,1.1,1.1,2.5,0.8,4.1l-2.1-0.4c0.1-1.1-0.1-2-0.6-2.7
		c-0.5-0.7-1.4-1.2-2.5-1.4c-1.1-0.2-2-0.1-2.7,0.2c-0.7,0.3-1.2,0.9-1.3,1.7c-0.2,1.3,0.9,2.5,3.4,3.6c0.4,0.2,0.7,0.3,0.9,0.4
		c0,0,0.1,0,0.2,0.1c1.7,0.8,2.7,1.4,3.2,2c0.4,0.5,0.6,1,0.7,1.5s0.1,1.2,0,1.8c-0.3,1.6-1.1,2.7-2.4,3.4c-1.3,0.7-2.9,0.9-4.8,0.5
		c-2-0.4-3.4-1.2-4.3-2.4S277.2,82.5,277.5,80.7z M296.3,81.2l3.6,1.1c1.3,0.4,2.2,0.4,2.8,0.2c0.6-0.3,1.1-0.9,1.4-1.8
		c0.3-0.9,0.2-1.7-0.1-2.2c-0.4-0.6-1.1-1-2.3-1.3l-3.8-1.1L296.3,81.2z M291.7,89.2l4.6-15.8l5.8,1.7c0.9,0.3,1.7,0.5,2.1,0.8
		c0.5,0.2,0.9,0.5,1.2,0.9c0.5,0.5,0.9,1.2,1,2c0.1,0.8,0.1,1.6-0.2,2.6c-0.3,0.9-0.7,1.6-1.2,2.2c-0.5,0.6-1.2,1-2,1.2
		c-0.4,0.1-0.9,0.2-1.5,0.1c-0.5-0.1-1.4-0.3-2.6-0.6l-3.3-1l-2,6.7L291.7,89.2z M305.5,93.4l6.1-15.3l2.1,0.8l-2.5,6.3l7.9,3.2
		l2.5-6.3l2.1,0.8l-6.1,15.3l-2.1-0.8l2.9-7.2l-7.9-3.2l-2.9,7.2L305.5,93.4z M320.9,99.7l7.5-14.7l10.5,5.4l-0.9,1.8l-8.5-4.4
		l-2.3,4.4l7.8,4l-0.9,1.7l-7.8-4l-2.5,4.9l8.7,4.4l-0.9,1.8L320.9,99.7z M343.5,95.4l-3,4.7l3.2,2.1c1.2,0.7,2.1,1.1,2.8,1
		s1.4-0.6,1.9-1.4c0.5-0.8,0.7-1.6,0.4-2.2c-0.2-0.6-1-1.3-2.2-2.1L343.5,95.4z M342.7,92.6l5.4,3.4c0.9,0.6,1.5,1,1.9,1.3
		c0.4,0.3,0.7,0.7,0.9,1.1c0.4,0.7,0.5,1.4,0.5,2.2c-0.1,0.8-0.3,1.5-0.8,2.3c-0.5,0.8-1,1.3-1.7,1.6c-0.7,0.3-1.4,0.4-2.2,0.3
		c0.4,0.5,0.7,1,0.7,1.5c0,0.5-0.2,1.2-0.7,2.1l-1.3,2.4c-0.3,0.5-0.4,0.9-0.5,1.2c-0.1,0.3,0,0.6,0.1,0.8l-0.2,0.4l-2.2-1.4
		c0-0.4,0.3-1.1,0.8-2.1l0-0.1l1-1.9c0.5-1,0.7-1.7,0.6-2.2c-0.2-0.5-0.9-1.2-2.2-2l-3.1-1.9l-3.8,6l-1.9-1.2L342.7,92.6z
		 M346.6,115l9.7-13.4l1.8,1.3l-9.7,13.4L346.6,115z M364.2,121.1l1.7,1.4c-1.4,1.5-2.9,2.3-4.7,2.4c-1.7,0.1-3.4-0.5-4.9-1.8
		c-1.8-1.5-2.7-3.3-2.7-5.3c0-2.1,0.9-4.2,2.7-6.3c1.7-2,3.5-3.1,5.5-3.4c2-0.3,4,0.3,5.8,1.8c1.4,1.2,2.3,2.5,2.6,4
		c0.3,1.5,0,3-0.9,4.4l-1.7-1.4c0.5-1,0.7-1.9,0.5-2.9c-0.2-1-0.8-1.8-1.8-2.6c-1.3-1.1-2.7-1.5-4.1-1.1c-1.5,0.3-2.9,1.3-4.2,2.9
		c-1.3,1.5-2,3.1-2,4.6c0,1.5,0.5,2.8,1.8,3.8c1,0.9,2.2,1.3,3.4,1.2C362.2,122.6,363.2,122.1,364.2,121.1z M375.3,130.9l3.5,3.8
		l3.6-6.8L375.3,130.9z M367.1,132l16.3-6.7l1.7,1.8l-8,15.7l-1.6-1.8l2.4-4.6l-4.4-4.8l-4.8,2.1L367.1,132z M393.4,140.2l-2.3-3.1
		l-10,7.6l2.3,3.1c1,1.3,2.2,2,3.6,2c1.4,0,2.9-0.6,4.5-1.9c1.6-1.2,2.6-2.5,2.9-3.8C394.7,142.8,394.4,141.5,393.4,140.2z
		 M378.1,144.2l13.1-10l3.8,5c1.4,1.8,1.9,3.6,1.6,5.4c-0.4,1.8-1.6,3.5-3.6,5.1c-2.1,1.6-4.2,2.4-6.1,2.3c-2-0.1-3.6-1.1-5-2.9
		L378.1,144.2z M401,151.6l-12,7.3l-1.1-1.8l14.1-8.6l1.7,2.7l-8.7,10.1c-0.2,0.3-0.4,0.5-0.6,0.7c-0.1,0.2-0.3,0.3-0.4,0.4
		c0.3-0.1,0.5-0.2,0.7-0.2s0.4-0.1,0.6-0.2l13-2.9l1.7,2.7l-14.1,8.6l-1.1-1.9l12-7.3c-0.2,0.1-0.5,0.2-0.7,0.2
		c-0.2,0.1-0.5,0.1-0.7,0.2l-13,2.9l-1.1-1.8l8.6-10.1c0.1-0.2,0.3-0.3,0.5-0.5C400.6,152,400.8,151.8,401,151.6z M397.5,173.7
		l14.7-7.5l1,2l-14.7,7.5L397.5,173.7z M400.2,178.9l15.2-6.5l1,2.3l-8,11.8c-0.2,0.3-0.3,0.5-0.5,0.7c-0.2,0.2-0.3,0.4-0.5,0.5
		l12.3-5.3l0.8,2l-15.2,6.5l-1-2.2l8.1-12c0.1-0.2,0.3-0.4,0.4-0.5c0.1-0.2,0.3-0.3,0.5-0.5l-12.3,5.3L400.2,178.9z M406.4,194.3
		l15.6-5.4l0.7,2.1l-15.6,5.4L406.4,194.3z M413.4,197.6l0.6,2.1c-1.1,0.3-2,1-2.4,1.9c-0.5,0.9-0.5,2-0.2,3.3
		c0.3,1.2,0.9,2.1,1.6,2.7c0.7,0.6,1.5,0.7,2.4,0.5c1.2-0.3,1.8-1.9,1.7-4.8c0-0.2,0-0.3,0-0.4c-0.1-2.3,0.1-3.9,0.5-4.8
		c0.4-0.9,1.2-1.5,2.4-1.8c1.4-0.4,2.7-0.2,3.8,0.6c1.1,0.8,2,2.1,2.4,3.8c0.5,1.8,0.4,3.3-0.2,4.5c-0.6,1.3-1.7,2.1-3.3,2.6
		l-0.6-2.1c1-0.4,1.8-1,2.1-1.8c0.4-0.8,0.4-1.8,0.1-2.9c-0.3-1.1-0.8-1.8-1.4-2.3c-0.6-0.5-1.3-0.6-2.1-0.4
		c-1.2,0.3-1.8,1.9-1.7,4.7c0,0.4,0,0.7,0,1c0,0,0,0.1,0,0.2c0.1,1.8-0.1,3.1-0.4,3.8c-0.2,0.5-0.6,1-1,1.3c-0.5,0.4-1,0.6-1.6,0.8
		c-1.5,0.4-2.9,0.2-4.1-0.6c-1.2-0.8-2.1-2.2-2.6-4.1c-0.5-1.9-0.5-3.6,0.2-4.9C410.4,199.2,411.6,198.2,413.4,197.6z M412.9,217.7
		l14.2-2.7l-1-5.1l2-0.4l2.4,12.5l-2,0.4l-1-5.1l-14.2,2.7L412.9,217.7z M429.3,227.7l-5.6,0.6l0.4,3.8c0.1,1.4,0.5,2.3,1,2.8
		c0.5,0.5,1.3,0.7,2.3,0.6c1-0.1,1.6-0.4,2-1c0.3-0.6,0.4-1.6,0.3-3L429.3,227.7z M431,225.3l0.6,6.4c0.1,1,0.1,1.8,0.1,2.3
		c0,0.5-0.1,0.9-0.3,1.4c-0.3,0.7-0.8,1.3-1.4,1.7s-1.4,0.7-2.3,0.8c-0.9,0.1-1.7,0-2.3-0.3c-0.7-0.3-1.2-0.8-1.6-1.5
		c-0.1,0.7-0.4,1.1-0.8,1.5c-0.4,0.3-1.1,0.6-2.1,0.7l-2.7,0.5c-0.6,0.1-1,0.2-1.3,0.4c-0.3,0.1-0.5,0.3-0.6,0.6l-0.5,0l-0.3-2.6
		c0.3-0.2,1-0.5,2.2-0.7l0.1,0l2.1-0.4c1.1-0.2,1.8-0.5,2.1-0.9c0.3-0.4,0.3-1.4,0.2-3l-0.4-3.6l-7,0.7l-0.2-2.2L431,225.3z
		 M422.8,245.1l0.1,5.1l7.2-2.6L422.8,245.1z M415.9,240.4l16.6,5.9l0,2.5l-16.4,6.4l0-2.4l4.9-1.8l-0.1-6.5l-5-1.7L415.9,240.4z
		 M415.7,260.4l14.5,1l0.4-5.2l2,0.1l-0.9,12.6l-2-0.1l0.4-5.2l-14.5-1L415.7,260.4z M414.8,269.9l16.4,2.1l-0.3,2.2l-16.4-2.1
		L414.8,269.9z M421.9,278.9c-2.1-0.4-3.8-0.3-5.1,0.5c-1.4,0.7-2.2,1.9-2.6,3.6c-0.3,1.7,0,3.1,1,4.3c1,1.2,2.5,2,4.6,2.4
		c2.1,0.4,3.8,0.3,5.2-0.4c1.4-0.7,2.2-1.9,2.5-3.6c0.3-1.7,0-3.1-0.9-4.3C425.5,280.2,424,279.4,421.9,278.9z M422.4,276.7
		c2.7,0.5,4.6,1.6,5.9,3.3c1.2,1.7,1.6,3.7,1.1,6.1c-0.5,2.4-1.6,4.1-3.4,5.2c-1.8,1-4,1.3-6.7,0.8c-2.7-0.5-4.6-1.6-5.9-3.3
		c-1.2-1.7-1.6-3.7-1.1-6.1c0.5-2.4,1.6-4.1,3.4-5.2C417.5,276.4,419.7,276.1,422.4,276.7z M410.4,293.1l15.8,4.9l-0.7,2.3
		l-13.7,3.8c-0.3,0.1-0.6,0.2-0.8,0.2c-0.3,0.1-0.5,0.1-0.7,0.1l12.8,4l-0.6,2l-15.8-4.9l0.7-2.3l14-3.9c0.2-0.1,0.4-0.1,0.7-0.1
		c0.2,0,0.5-0.1,0.7-0.1l-12.8-4L410.4,293.1z"/>
	<path id="XMLID_103_" class="st0" d="M95.2,334.2l8.8-5.2l1.1,1.9l-8.8,5.2c-1.3,0.8-2.1,1.7-2.4,2.6c-0.3,1-0.1,2.1,0.7,3.3
		c0.7,1.2,1.6,1.9,2.6,2.2c1,0.2,2.2-0.1,3.5-0.8l8.8-5.2l1.2,1.9l-8.8,5.2c-1.9,1.1-3.6,1.5-5.2,1.1c-1.6-0.4-2.9-1.5-4-3.4
		c-1.1-1.8-1.4-3.4-0.9-4.8C92.1,336.6,93.3,335.3,95.2,334.2z M98.9,352l2.1-1.4l1.3,1.9l-2.1,1.4L98.9,352z M106.5,353.5l1.3,1.7
		c-0.9,0.8-1.4,1.7-1.5,2.7c-0.1,1,0.3,2.1,1.1,3.1c0.8,1,1.6,1.6,2.5,1.9c0.9,0.2,1.7,0.1,2.4-0.5c1-0.8,0.9-2.5-0.3-5
		c-0.1-0.2-0.1-0.3-0.2-0.4c-1-2.1-1.4-3.6-1.3-4.6c0.1-1,0.6-1.8,1.5-2.6c1.2-0.9,2.4-1.2,3.8-0.9c1.4,0.3,2.6,1.2,3.7,2.6
		c1.1,1.4,1.6,2.9,1.5,4.3c-0.1,1.4-0.8,2.6-2.1,3.6l-1.3-1.7c0.8-0.7,1.3-1.6,1.3-2.5s-0.3-1.8-1-2.7c-0.7-0.9-1.4-1.4-2.2-1.6
		c-0.8-0.2-1.5-0.1-2.1,0.4c-1,0.8-0.9,2.4,0.3,5c0.2,0.4,0.3,0.7,0.4,0.9c0,0,0.1,0.1,0.1,0.2c0.8,1.7,1.1,2.9,1.1,3.6
		c0,0.6-0.2,1.1-0.5,1.6c-0.3,0.5-0.7,1-1.2,1.4c-1.3,1-2.6,1.3-4,1c-1.4-0.3-2.8-1.2-4-2.8c-1.2-1.6-1.8-3.1-1.7-4.6
		C104.2,356.1,105,354.8,106.5,353.5z M112.5,369.7l1.9-1.7l1.5,1.7l-1.9,1.7L112.5,369.7z M136,373l-2.8-2.6l-8.5,9.2l2.8,2.6
		c1.2,1.1,2.5,1.6,3.8,1.4c1.3-0.2,2.7-1.1,4.2-2.6c1.4-1.5,2.1-2.9,2.2-4.3C137.8,375.4,137.2,374.1,136,373z M121.6,379.6
		l11.2-12.1l4.6,4.3c1.7,1.6,2.5,3.3,2.5,5.1s-0.9,3.7-2.7,5.6c-1.8,2-3.7,3.1-5.6,3.3c-1.9,0.2-3.7-0.4-5.4-2L121.6,379.6z
		 M134.1,390.9l10.1-13l9.3,7.2l-1.3,1.6l-7.5-5.8l-3,3.9l7,5.4l-1.2,1.5l-7-5.4l-3.4,4.4l7.7,6l-1.3,1.6L134.1,390.9z M153.1,393.8
		l3.2,2.1c1.1,0.7,2,1,2.6,1c0.7-0.1,1.3-0.5,1.8-1.4c0.5-0.8,0.7-1.5,0.5-2.2c-0.2-0.6-0.8-1.3-1.8-1.9l-3.3-2.1L153.1,393.8z
		 M146.3,400.1l9-13.8l5.1,3.3c0.8,0.5,1.4,1,1.8,1.3c0.4,0.4,0.7,0.7,0.9,1.2c0.4,0.7,0.5,1.4,0.4,2.2s-0.4,1.6-0.9,2.4
		c-0.5,0.8-1.1,1.4-1.8,1.7c-0.7,0.4-1.4,0.6-2.2,0.6c-0.5,0-0.9-0.1-1.4-0.3c-0.5-0.2-1.3-0.6-2.3-1.3l-2.9-1.9l-3.8,5.8
		L146.3,400.1z M164.9,403.5l4.5,2.4l1.2-7.6L164.9,403.5z M157.4,407.3l13.2-11.6l2.2,1.2l-2.4,17.4l-2.1-1.2l0.8-5.2l-5.7-3.1
		l-3.9,3.5L157.4,407.3z M180.3,402.7l-2.2,5.1l3.5,1.5c1.3,0.5,2.3,0.7,3,0.5c0.7-0.2,1.3-0.8,1.7-1.7c0.4-0.9,0.4-1.6,0.1-2.2
		c-0.3-0.6-1.2-1.2-2.5-1.7L180.3,402.7z M179.1,400.1l5.9,2.5c1,0.4,1.6,0.8,2,1c0.4,0.3,0.8,0.6,1,0.9c0.5,0.6,0.8,1.3,0.8,2.1
		c0.1,0.8-0.1,1.6-0.5,2.4c-0.4,0.8-0.8,1.4-1.4,1.9c-0.6,0.4-1.3,0.7-2.2,0.7c0.5,0.4,0.8,0.9,0.9,1.4c0.1,0.5,0,1.2-0.4,2.2
		l-0.9,2.6c-0.2,0.5-0.3,1-0.3,1.3c0,0.3,0.1,0.6,0.2,0.8l-0.2,0.4l-2.4-1c-0.1-0.4,0.1-1.1,0.5-2.2l0-0.1l0.7-2
		c0.4-1,0.4-1.8,0.2-2.3c-0.2-0.5-1.1-1-2.5-1.6l-3.3-1.4l-2.8,6.5l-2-0.9L179.1,400.1z M190.6,422.5l4.7-13.7l-4.9-1.7l0.6-1.9
		l12,4.1l-0.6,1.9l-4.9-1.7l-4.7,13.7L190.6,422.5z M205.4,412.4l-3.3,13.7l-2-0.5l3.8-16.1l3.1,0.7l1,13.2c0,0.4,0.1,0.7,0.1,0.9
		c0,0.2,0,0.4,0,0.5c0.1-0.3,0.2-0.5,0.3-0.7c0.1-0.2,0.2-0.4,0.3-0.6l7.1-11.3l3.1,0.7l-3.8,16.1l-2.1-0.5l3.3-13.7
		c-0.1,0.2-0.2,0.4-0.3,0.7c-0.1,0.2-0.2,0.4-0.4,0.7l-7.1,11.3l-2.1-0.5l-1.1-13.2c0-0.2,0-0.5,0-0.7
		C205.4,413,205.4,412.7,205.4,412.4z M219.3,429.9l2.3-16.3l11.7,1.6l-0.3,2l-9.5-1.3l-0.7,4.9l8.7,1.2l-0.3,1.9l-8.7-1.2l-0.8,5.5
		l9.6,1.3l-0.3,2L219.3,429.9z M234.4,431.9l0.8-16.5l2.5,0.1l7.1,12.4c0.2,0.3,0.3,0.5,0.4,0.8c0.1,0.2,0.2,0.5,0.3,0.7l0.7-13.4
		l2.1,0.1l-0.8,16.5l-2.4-0.1l-7.3-12.5c-0.1-0.2-0.2-0.4-0.3-0.6c-0.1-0.2-0.2-0.4-0.3-0.7l-0.7,13.4L234.4,431.9z M255.2,432.4
		l-0.5-14.5l-5.2,0.2l-0.1-2l12.7-0.4l0.1,2l-5.2,0.2l0.5,14.5L255.2,432.4z M272.4,422.9c0.3,2.1,1.1,3.6,2.2,4.7
		c1.2,1,2.6,1.4,4.3,1.1c1.7-0.3,2.9-1.1,3.7-2.4c0.8-1.3,1-3,0.7-5.1c-0.3-2.1-1.1-3.7-2.2-4.7c-1.1-1-2.6-1.4-4.3-1.1
		c-1.7,0.3-2.9,1.1-3.7,2.4C272.3,419.1,272,420.8,272.4,422.9z M270.1,423.2c-0.4-2.7-0.1-4.9,1-6.6c1.1-1.7,2.9-2.8,5.3-3.2
		c2.4-0.4,4.4,0.1,6,1.4c1.6,1.3,2.6,3.3,3,6c0.4,2.7,0.1,4.9-1,6.6c-1.1,1.7-2.9,2.8-5.3,3.2c-2.4,0.4-4.4-0.1-6-1.4
		C271.5,427.9,270.5,425.9,270.1,423.2z M290.2,428.1l-4-16l10.7-2.7l0.5,2l-8.6,2.2l1.2,4.8l7.5-1.9l0.5,2l-7.5,1.9l1.8,7.2
		L290.2,428.1z M318.8,412.5l2-0.8c0.6,1.9,0.6,3.6-0.2,5.2c-0.8,1.6-2.1,2.7-4,3.5c-2.2,0.8-4.1,0.8-6-0.2s-3.2-2.8-4.2-5.4
		c-0.9-2.4-1-4.6-0.3-6.5c0.7-1.9,2.2-3.3,4.4-4.1c1.7-0.7,3.3-0.8,4.8-0.3c1.5,0.5,2.6,1.4,3.4,2.9l-2,0.8
		c-0.6-0.9-1.4-1.5-2.3-1.8c-0.9-0.3-2-0.2-3.2,0.3c-1.6,0.6-2.6,1.6-3,3c-0.4,1.4-0.3,3.1,0.5,5.1c0.7,1.9,1.8,3.2,3.1,4
		s2.7,0.9,4.2,0.3c1.3-0.5,2.1-1.3,2.6-2.4C319.2,415.1,319.2,413.9,318.8,412.5z M323.7,408.1c1,1.9,2.1,3.1,3.5,3.8
		c1.4,0.6,2.9,0.5,4.4-0.2c1.5-0.8,2.5-1.9,2.8-3.4c0.3-1.5,0-3.2-0.9-5.1c-1-1.9-2.1-3.2-3.5-3.8c-1.4-0.6-2.9-0.5-4.4,0.2
		c-1.5,0.8-2.5,1.9-2.8,3.4C322.5,404.5,322.8,406.2,323.7,408.1z M321.7,409.1c-1.2-2.4-1.6-4.6-1-6.6c0.5-2,1.9-3.5,4.1-4.6
		c2.2-1.1,4.2-1.3,6.2-0.5c1.9,0.7,3.5,2.3,4.7,4.8c1.2,2.4,1.6,4.6,1,6.6c-0.5,2-1.9,3.5-4.1,4.6c-2.2,1.1-4.2,1.3-6.2,0.5
		C324.5,413.1,322.9,411.5,321.7,409.1z M336.4,394.8l7.6,11.8l-1.7,1.1l-8.9-13.9l2.7-1.7l10.3,8.4c0.3,0.2,0.5,0.4,0.7,0.6
		c0.2,0.1,0.3,0.3,0.4,0.4c-0.1-0.3-0.2-0.5-0.2-0.7c-0.1-0.2-0.1-0.4-0.2-0.6l-3.3-12.9l2.7-1.7l8.9,13.9l-1.8,1.2l-7.6-11.8
		c0.1,0.2,0.2,0.5,0.2,0.7s0.1,0.5,0.2,0.7l3.3,12.9l-1.8,1.1l-10.3-8.4c-0.2-0.1-0.4-0.3-0.5-0.5S336.6,395,336.4,394.8z
		 M351.5,384.6l8.8,10.9l-1.6,1.3L348.3,384l2.5-2l11.1,7.3c0.3,0.2,0.6,0.4,0.7,0.5s0.3,0.2,0.4,0.3c-0.1-0.3-0.2-0.5-0.3-0.7
		c-0.1-0.2-0.2-0.4-0.2-0.6l-4.6-12.5l2.5-2l10.4,12.8l-1.7,1.4l-8.8-10.9c0.1,0.2,0.2,0.4,0.3,0.7c0.1,0.2,0.2,0.5,0.3,0.7
		l4.6,12.5l-1.6,1.3l-11.1-7.2c-0.2-0.1-0.4-0.2-0.6-0.4C351.9,385,351.7,384.8,351.5,384.6z M373.8,384.3l-11.5-11.8l8.4-8.2
		l1.4,1.5l-6.8,6.7l3.4,3.5l6.3-6.2l1.3,1.4l-6.3,6.2l3.9,4l7-6.8l1.4,1.5L373.8,384.3z M375,362.3l4.2,3.7l2.5-2.9
		c0.9-1,1.4-1.9,1.4-2.7c0-0.7-0.3-1.4-1.1-2.1c-0.7-0.6-1.4-0.9-2.1-0.7c-0.7,0.1-1.5,0.8-2.4,1.9L375,362.3z M372.1,362.7l4.2-4.8
		c0.7-0.8,1.2-1.3,1.6-1.6c0.4-0.3,0.8-0.5,1.2-0.7c0.7-0.3,1.5-0.3,2.2-0.2c0.8,0.2,1.5,0.6,2.2,1.2c0.7,0.6,1.1,1.2,1.4,1.9
		s0.2,1.5,0,2.3c0.6-0.4,1.1-0.5,1.6-0.4c0.5,0.1,1.2,0.4,2,1l2.2,1.6c0.5,0.4,0.8,0.6,1.1,0.7c0.3,0.1,0.6,0.1,0.8,0l0.3,0.3
		l-1.7,2c-0.4-0.1-1-0.4-2-1.1l-0.1,0l-1.7-1.3c-0.9-0.7-1.6-1-2.1-0.9c-0.5,0.1-1.3,0.7-2.3,1.9l-2.4,2.7l5.4,4.6l-1.5,1.7
		L372.1,362.7z M396.6,348.5l1.3-1.8c1.6,1.3,2.5,2.7,2.7,4.5s-0.3,3.4-1.4,5.1c-1.4,1.9-3.1,2.9-5.1,3c-2.1,0.1-4.2-0.6-6.5-2.2
		c-2.1-1.5-3.4-3.3-3.8-5.3s0-4,1.4-5.9c1.1-1.5,2.4-2.5,3.9-2.9c1.5-0.4,2.9-0.2,4.4,0.6l-1.3,1.8c-1-0.5-2-0.6-2.9-0.3
		c-0.9,0.3-1.8,1-2.5,2c-1,1.4-1.3,2.8-0.8,4.2c0.4,1.4,1.5,2.8,3.2,4c1.6,1.2,3.2,1.7,4.8,1.7s2.8-0.7,3.7-2
		c0.8-1.1,1.1-2.2,0.9-3.4C398.3,350.4,397.7,349.3,396.6,348.5z M404.6,347.5l-14.2-8.4l6-10.1l1.8,1l-4.9,8.2l4.2,2.5l4.5-7.6
		l1.7,1l-4.5,7.6l4.8,2.8l5-8.4l1.8,1.1L404.6,347.5z"/>
</g>
</svg>
