<svg width="100%" height="100%" viewBox="0 0 500 500" version="1.1" xmlns="http://www.w3.org/2000/svg" xmlns:xlink="http://www.w3.org/1999/xlink" xml:space="preserve" xmlns:serif="http://www.serif.com/" style="fill-rule:evenodd;clip-rule:evenodd;stroke-linejoin:round;stroke-miterlimit:2;">
    <g id="XMLID_1_" transform="matrix(1.59015,0,0,1.59015,-147.849,-147.258)">
        <g transform="matrix(1.20156,-0.00853273,0.00868847,1.2235,-160.533,-112.009)">
            <ellipse cx="339.015" cy="275.63" rx="125.064" ry="95.501" style="fill:rgb(2,0,0);"/>
        </g>
        <path id="XMLID_3_" d="M323.6,111.6C320.4,109.9 293.4,93.6 251.9,93C161.9,93.3 122.3,159.3 122.3,159.3C142.2,169.1 162.9,198.4 163.1,198.8C185.4,230 216.4,278.5 256.6,279.4C269.5,279.7 278,272 287.8,262.5C323.5,227.9 328.5,164 374.2,155C374.3,155.1 357.3,129.6 323.6,111.6Z" style="fill:rgb(38,63,120);fill-rule:nonzero;"/>
        <path id="XMLID_4_" d="M390.5,180.5C390.6,180.5 409.8,218.5 406.4,259C404.5,327 344.4,404.1 254.9,406.6L242.4,406.3C150.1,401.7 93.4,323.4 93.7,252.6C93.9,239.4 93.9,224.7 99.4,206.6L105.1,208.3C128.8,217.2 154.3,286.3 237.2,290.3C240.8,290.5 247.7,290.6 247.7,290.7C242.3,296.1 211.8,308.7 197.9,312C201.5,311.1 197.6,311.9 197.9,312C231.3,332.7 264.6,292.9 307.9,287L321.2,286.2C318.7,278.2 307.2,278.9 306.2,279C276.2,282 283.7,278.5 282.8,278.8C328.8,264.4 355.4,227.5 388.5,182.6L390.5,180.5Z" style="fill:rgb(0,126,198);fill-rule:nonzero;"/>
        <g transform="matrix(1.48051,0,0,1.63867,-199.999,-231.885)">
            <path d="M303.799,197.798C362.218,197.798 409.646,240.795 409.646,293.756C409.646,346.717 362.218,389.714 303.799,389.714C245.38,389.714 197.952,346.717 197.952,293.756C197.952,240.795 245.38,197.798 303.799,197.798ZM303.799,204.095C358.384,204.095 402.7,244.271 402.7,293.756C402.7,343.241 358.384,383.417 303.799,383.417C249.214,383.417 204.898,343.241 204.898,293.756C204.898,244.271 249.214,204.095 303.799,204.095Z" style="fill:rgb(2,0,0);"/>
        </g>
    </g>
</svg>
