<svg width="100%" height="100%" viewBox="0 0 500 500" version="1.1" xmlns="http://www.w3.org/2000/svg" xmlns:xlink="http://www.w3.org/1999/xlink" xml:space="preserve" xmlns:serif="http://www.serif.com/" style="fill-rule:evenodd;clip-rule:evenodd;stroke-linejoin:round;stroke-miterlimit:2;">
    <g id="XMLID_1_" transform="matrix(1.59015,0,0,1.59015,-147.849,-147.258)">
        <path id="XMLID_3_" d="M323.6,111.6C320.4,109.9 293.4,93.6 251.9,93C161.9,93.3 122.3,159.3 122.3,159.3C142.2,169.1 162.9,198.4 163.1,198.8C185.4,230 216.4,278.5 256.6,279.4C269.5,279.7 278,272 287.8,262.5C323.5,227.9 328.5,164 374.2,155C374.3,155.1 357.3,129.6 323.6,111.6Z" style="fill:rgb(38,63,120);fill-rule:nonzero;"/>
        <path id="XMLID_4_" d="M390.5,180.5C390.6,180.5 409.8,218.5 406.4,259C404.5,327 344.4,404.1 254.9,406.6L242.4,406.3C150.1,401.7 93.4,323.4 93.7,252.6C93.9,239.4 93.9,224.7 99.4,206.6L105.1,208.3C128.8,217.2 154.3,286.3 237.2,290.3C240.8,290.5 247.7,290.6 247.7,290.7C242.3,296.1 211.8,308.7 197.9,312C201.5,311.1 197.6,311.9 197.9,312C231.3,332.7 264.6,292.9 307.9,287L321.2,286.2C318.7,278.2 307.2,278.9 306.2,279C276.2,282 283.7,278.5 282.8,278.8C328.8,264.4 355.4,227.5 388.5,182.6L390.5,180.5Z" style="fill:rgb(0,126,198);fill-rule:nonzero;"/>
        <path id="XMLID_5_" d="M223.9,153.9L234.6,153.9C238.9,153.9 242.4,157.4 242.4,161.7L242.4,187.4C242.4,191.7 238.9,195.2 234.6,195.2L223.9,195.2C219.6,195.2 216.1,191.7 216.1,187.4L216.1,161.7C216.1,157.4 219.6,153.9 223.9,153.9Z" style="fill:white;fill-rule:nonzero;"/>
        <path id="XMLID_6_" d="M226.7,161L231.7,161C232.7,161 233.5,161.8 233.5,162.8L233.5,186.3C233.5,187.3 232.7,188.1 231.7,188.1L226.7,188.1C225.7,188.1 224.9,187.3 224.9,186.3L224.9,162.8C224.9,161.8 225.7,161 226.7,161Z" style="fill:rgb(38,63,120);fill-rule:nonzero;"/>
        <path id="XMLID_7_" d="M257.7,153.9C253.4,153.9 249.9,157.4 249.9,161.7L249.9,195.2L258.7,195.2L258.7,178.6L267.3,178.6L267.3,195.2L276.1,195.2L276.1,161.7C276.1,157.4 272.6,153.9 268.3,153.9L257.7,153.9Z" style="fill:white;fill-rule:nonzero;"/>
        <path id="XMLID_8_" d="M260.6,161L265.6,161C266.6,161 267.4,161.8 267.4,162.8L267.4,171.6L258.8,171.6L258.8,162.8C258.8,161.8 259.6,161 260.6,161Z" style="fill:rgb(38,63,120);fill-rule:nonzero;"/>
        <path id="XMLID_9_" d="M291.5,153.9C287.2,153.9 283.7,157.4 283.7,161.7L283.7,195.2L292.5,195.2L292.5,178.6L301.1,178.6L301.1,195.2L309.9,195.2L309.9,161.7C309.9,157.4 306.4,153.9 302.1,153.9L291.5,153.9Z" style="fill:white;fill-rule:nonzero;"/>
        <path id="XMLID_10_" d="M294.4,161L299.4,161C300.4,161 301.2,161.8 301.2,162.8L301.2,171.6L292.6,171.6L292.6,162.8C292.6,161.8 293.4,161 294.4,161Z" style="fill:rgb(38,63,120);fill-rule:nonzero;"/>
        <path id="XMLID_11_" d="M182.3,153.9L182.3,195.2L191.2,195.2L191.2,162.8C191.2,161.8 192,161 193,161L198,161C199,161 199.8,161.8 199.8,162.8L199.8,195.2L208.6,195.2L208.6,161.7C208.6,157.4 205.1,153.9 200.8,153.9L182.3,153.9Z" style="fill:white;fill-rule:nonzero;"/>
    </g>
</svg>
