<?xml version="1.0" encoding="UTF-8" standalone="no"?>
<!DOCTYPE svg PUBLIC "-//W3C//DTD SVG 1.1//EN" "http://www.w3.org/Graphics/SVG/1.1/DTD/svg11.dtd">
<svg width="100%" height="100%" viewBox="0 0 1000 1000" version="1.1" xmlns="http://www.w3.org/2000/svg" xmlns:xlink="http://www.w3.org/1999/xlink" xml:space="preserve" xmlns:serif="http://www.serif.com/" style="fill-rule:evenodd;clip-rule:evenodd;stroke-linejoin:round;stroke-miterlimit:2;">
    <g transform="matrix(1.88459,0,0,1.22812,-3.70124,1.761)">
        <path d="M266.958,-0.428C413.543,-0.428 532.552,181.719 532.552,406.073C532.552,630.427 413.543,812.574 266.958,812.574C120.372,812.574 1.364,630.427 1.364,406.073C1.364,181.719 120.372,-0.428 266.958,-0.428ZM266.958,33.108C401.45,33.108 510.64,200.228 510.64,406.073C510.64,611.918 401.45,779.038 266.958,779.038C132.466,779.038 23.275,611.918 23.275,406.073C23.275,200.228 132.466,33.108 266.958,33.108Z"/>
    </g>
    <g id="Cancel" transform="matrix(11.2202,0,0,12.8007,-1688.54,-1100.08)">
        <path d="M195,122.879L209.939,107.939C210.646,108.646 211.354,109.354 212.061,110.061L197.121,125L212.061,139.939L209.939,142.061L195,127.121L180.061,142.061L177.939,139.939L192.879,125L177.939,110.061L180.061,107.939L195,122.879Z"/>
    </g>
</svg>
