<?xml version="1.0" encoding="utf-8"?>
<!-- Generator: Adobe Illustrator 23.0.1, SVG Export Plug-In . SVG Version: 6.00 Build 0)  -->
<svg version="1.1" id="Layer_1" xmlns="http://www.w3.org/2000/svg" xmlns:xlink="http://www.w3.org/1999/xlink" x="0px" y="0px"
	 viewBox="0 0 124 467" style="enable-background:new 0 0 124 467;" xml:space="preserve">
<style type="text/css">
	.st0{fill:url(#SVGID_1_);}
	.st1{fill:none;stroke:white;stroke-miterlimit:10;}
	.st2{fill-rule:evenodd;clip-rule:evenodd;fill:url(#SVGID_2_);}
	.st3{fill-rule:evenodd;clip-rule:evenodd;fill:url(#SVGID_3_);}
	.st4{font-family:'MyriadPro-Regular';}
	.st5{font-size:10.5311px;}
	.st6{fill:none;}
	.st7{font-size:16px;}
	.st8{fill-rule:evenodd;clip-rule:evenodd;fill:url(#SVGID_4_);}
	.st9{fill-rule:evenodd;clip-rule:evenodd;fill:url(#SVGID_5_);}
	.st10{fill-rule:evenodd;clip-rule:evenodd;fill:url(#SVGID_6_);}
	.st11{fill-rule:evenodd;clip-rule:evenodd;fill:url(#SVGID_7_);}
	.st12{fill-rule:evenodd;clip-rule:evenodd;fill:url(#SVGID_8_);}
	.st13{fill-rule:evenodd;clip-rule:evenodd;fill:url(#SVGID_9_);}
	.st14{fill-rule:evenodd;clip-rule:evenodd;fill:url(#SVGID_10_);}
	.st15{fill-rule:evenodd;clip-rule:evenodd;fill:url(#SVGID_11_);}
	.st16{fill-rule:evenodd;clip-rule:evenodd;fill:url(#SVGID_12_);}
	.st17{fill-rule:evenodd;clip-rule:evenodd;fill:url(#SVGID_13_);}
	.st18{fill-rule:evenodd;clip-rule:evenodd;fill:url(#SVGID_14_);}
	.st19{fill-rule:evenodd;clip-rule:evenodd;fill:url(#SVGID_15_);}
	.st20{fill-rule:evenodd;clip-rule:evenodd;fill:url(#SVGID_16_);}
	.st21{fill-rule:evenodd;clip-rule:evenodd;fill:url(#SVGID_17_);}
	.st22{fill-rule:evenodd;clip-rule:evenodd;fill:url(#SVGID_18_);}
	.st23{fill-rule:evenodd;clip-rule:evenodd;fill:url(#SVGID_19_);}
	.st24{fill-rule:evenodd;clip-rule:evenodd;fill:url(#SVGID_20_);}
	.st25{fill-rule:evenodd;clip-rule:evenodd;fill:url(#SVGID_21_);}
</style>
<g>
	
		<linearGradient id="SVGID_1_" gradientUnits="userSpaceOnUse" x1="-622.3369" y1="551.275" x2="-172.3368" y2="551.275" gradientTransform="matrix(8.326673e-17 -1 1 8.326673e-17 -500.275 -166.8939)">
		<stop  offset="0" style="stop-color:#0064FF"/>
		<stop  offset="0.01" style="stop-color:#046AFF"/>
		<stop  offset="0.0186" style="stop-color:#076FFF"/>
		<stop  offset="0.03" style="stop-color:#0A74FF"/>
		<stop  offset="0.0382" style="stop-color:#0E79FF"/>
		<stop  offset="0.051" style="stop-color:#117EFF"/>
		<stop  offset="0.065" style="stop-color:#1483FF"/>
		<stop  offset="0.0763" style="stop-color:#1889FF"/>
		<stop  offset="0.0895" style="stop-color:#1B8EFF"/>
		<stop  offset="0.1031" style="stop-color:#1E93FF"/>
		<stop  offset="0.1145" style="stop-color:#2298FF"/>
		<stop  offset="0.125" style="stop-color:#259DFF"/>
		<stop  offset="0.1378" style="stop-color:#28A2FF"/>
		<stop  offset="0.1495" style="stop-color:#2CA8FF"/>
		<stop  offset="0.1605" style="stop-color:#2FADFF"/>
		<stop  offset="0.1726" style="stop-color:#32B2FF"/>
		<stop  offset="0.1847" style="stop-color:#36B7FF"/>
		<stop  offset="0.1983" style="stop-color:#39BDFF"/>
		<stop  offset="0.2079" style="stop-color:#3CC1FF"/>
		<stop  offset="0.222" style="stop-color:#40C7FF"/>
		<stop  offset="0.2339" style="stop-color:#43CCFF"/>
		<stop  offset="0.2481" style="stop-color:#46D1FF"/>
		<stop  offset="0.2622" style="stop-color:#4AD6FF"/>
		<stop  offset="0.2764" style="stop-color:#4DDBFF"/>
		<stop  offset="0.2888" style="stop-color:#50E0FF"/>
		<stop  offset="0.2968" style="stop-color:#54E6FF"/>
		<stop  offset="0.3064" style="stop-color:#57EBFF"/>
		<stop  offset="0.3166" style="stop-color:#5AF0FF"/>
		<stop  offset="0.3296" style="stop-color:#5EF5FF"/>
		<stop  offset="0.3432" style="stop-color:#61FAFF"/>
		<stop  offset="0.3545" style="stop-color:#64FFFF"/>
		<stop  offset="0.3669" style="stop-color:#74FF09"/>
		<stop  offset="0.3788" style="stop-color:#83FF11"/>
		<stop  offset="0.3896" style="stop-color:#93FF1A"/>
		<stop  offset="0.3992" style="stop-color:#A2FF22"/>
		<stop  offset="0.4117" style="stop-color:#B2FF2B"/>
		<stop  offset="0.4264" style="stop-color:#C1FF33"/>
		<stop  offset="0.4388" style="stop-color:#D1FF3C"/>
		<stop  offset="0.4519" style="stop-color:#E0FF44"/>
		<stop  offset="0.4632" style="stop-color:#F0FF4D"/>
		<stop  offset="0.4768" style="stop-color:#FFFF55"/>
		<stop  offset="0.4875" style="stop-color:#FF1A01"/>
		<stop  offset="0.5005" style="stop-color:#FF3302"/>
		<stop  offset="0.5136" style="stop-color:#FF4D03"/>
		<stop  offset="0.5249" style="stop-color:#FF6604"/>
		<stop  offset="0.5356" style="stop-color:#FF8004"/>
		<stop  offset="0.5492" style="stop-color:#FF9905"/>
		<stop  offset="0.5611" style="stop-color:#FFB306"/>
		<stop  offset="0.5747" style="stop-color:#FFCC07"/>
		<stop  offset="0.586" style="stop-color:#FFE608"/>
		<stop  offset="0.5973" style="stop-color:#FFFF08"/>
		<stop  offset="0.6075" style="stop-color:#6A0000"/>
		<stop  offset="0.6206" style="stop-color:#6F0000"/>
		<stop  offset="0.6319" style="stop-color:#740000"/>
		<stop  offset="0.6443" style="stop-color:#790000"/>
		<stop  offset="0.6579" style="stop-color:#7E0000"/>
		<stop  offset="0.658" style="stop-color:#7E0000"/>
		<stop  offset="0.6704" style="stop-color:#830000"/>
		<stop  offset="0.6828" style="stop-color:#890000"/>
		<stop  offset="0.6896" style="stop-color:#8B0000"/>
		<stop  offset="0.6913" style="stop-color:#8E0000"/>
		<stop  offset="0.6998" style="stop-color:#930000"/>
		<stop  offset="0.7117" style="stop-color:#980000"/>
		<stop  offset="0.77" style="stop-color:#B20000"/>
		<stop  offset="0.8306" style="stop-color:#CC0000"/>
		<stop  offset="0.89" style="stop-color:#E60000"/>
		<stop  offset="0.9534" style="stop-color:#FF0000"/>
	</linearGradient>
	<rect x="30.5" y="8.5" class="st0" width="41" height="450"/>
	<path fill="#2c2f336b" d="M71,9v449H31V9H71 M72,8H30v451h42V8L72,8z"/>
</g>
<g>
	<line class="st1" x1="79" y1="432.5" x2="100" y2="432.5"/>
	<linearGradient id="SVGID_2_" gradientUnits="userSpaceOnUse" x1="79" y1="432.5" x2="100" y2="432.5">
		<stop  offset="0" style="stop-color:#FFFFFF"/>
		<stop  offset="0" style="stop-color:#000000"/>
	</linearGradient>
	<line class="st2" x1="79" y1="432.5" x2="100" y2="432.5"/>
</g>
<g>
	<line class="st1" x1="79" y1="458.5" x2="100" y2="458.5"/>
	<linearGradient id="SVGID_3_" gradientUnits="userSpaceOnUse" x1="79" y1="458.5" x2="100" y2="458.5">
		<stop  offset="0" style="stop-color:#FFFFFF"/>
		<stop  offset="0" style="stop-color:#000000"/>
	</linearGradient>
	<line class="st3" x1="79" y1="458.5" x2="100" y2="458.5"/>
</g>
<text transform="matrix(1.1395 0 0 1 85.6172 456.8145)" class="st4 st5" fill="white">40 ºF</text>
<rect x="6.36" y="79.53" class="st6" width="41.87" height="204.26"/>
<text transform="matrix(4.489659e-11 -1 1 4.489659e-11 17.7218 283.7866)" class="st4 st7" fill="white">Temperatura</text>
<g>
	<line class="st1" x1="79" y1="404.5" x2="100" y2="404.5"/>
	<linearGradient id="SVGID_4_" gradientUnits="userSpaceOnUse" x1="79" y1="404.5" x2="100" y2="404.5">
		<stop  offset="0" style="stop-color:#FFFFFF"/>
		<stop  offset="0" style="stop-color:#000000"/>
	</linearGradient>
	<line class="st8" x1="79" y1="404.5" x2="100" y2="404.5"/>
</g>
<g>
	<line class="st1" x1="79" y1="377.5" x2="100" y2="377.5"/>
	<linearGradient id="SVGID_5_" gradientUnits="userSpaceOnUse" x1="79" y1="377.5" x2="100" y2="377.5">
		<stop  offset="0" style="stop-color:#FFFFFF"/>
		<stop  offset="0" style="stop-color:#000000"/>
	</linearGradient>
	<line class="st9" x1="79" y1="377.5" x2="100" y2="377.5"/>
</g>
<g>
	<line class="st1" x1="79" y1="350.5" x2="100" y2="350.5"/>
	<linearGradient id="SVGID_6_" gradientUnits="userSpaceOnUse" x1="79" y1="350.5" x2="100" y2="350.5">
		<stop  offset="0" style="stop-color:#FFFFFF"/>
		<stop  offset="0" style="stop-color:#000000"/>
	</linearGradient>
	<line class="st10" x1="79" y1="350.5" x2="100" y2="350.5"/>
</g>
<g>
	<line class="st1" x1="79" y1="323.5" x2="100" y2="323.5"/>
	<linearGradient id="SVGID_7_" gradientUnits="userSpaceOnUse" x1="79" y1="323.5" x2="100" y2="323.5">
		<stop  offset="0" style="stop-color:#FFFFFF"/>
		<stop  offset="0" style="stop-color:#000000"/>
	</linearGradient>
	<line class="st11" x1="79" y1="323.5" x2="100" y2="323.5"/>
</g>
<g>
	<line class="st1" x1="79" y1="296.5" x2="100" y2="296.5"/>
	<linearGradient id="SVGID_8_" gradientUnits="userSpaceOnUse" x1="79" y1="296.5" x2="100" y2="296.5">
		<stop  offset="0" style="stop-color:#FFFFFF"/>
		<stop  offset="0" style="stop-color:#000000"/>
	</linearGradient>
	<line class="st12" x1="79" y1="296.5" x2="100" y2="296.5"/>
</g>
<g>
	<line class="st1" x1="79" y1="269.5" x2="100" y2="269.5"/>
	<linearGradient id="SVGID_9_" gradientUnits="userSpaceOnUse" x1="79" y1="269.5" x2="100" y2="269.5">
		<stop  offset="0" style="stop-color:#FFFFFF"/>
		<stop  offset="0" style="stop-color:#000000"/>
	</linearGradient>
	<line class="st13" x1="79" y1="269.5" x2="100" y2="269.5"/>
</g>
<g>
	<line class="st1" x1="79" y1="242.5" x2="100" y2="242.5"/>
	<linearGradient id="SVGID_10_" gradientUnits="userSpaceOnUse" x1="79" y1="242.5" x2="100" y2="242.5">
		<stop  offset="0" style="stop-color:#FFFFFF"/>
		<stop  offset="0" style="stop-color:#000000"/>
	</linearGradient>
	<line class="st14" x1="79" y1="242.5" x2="100" y2="242.5"/>
</g>
<g>
	<line class="st1" x1="79" y1="215.5" x2="100" y2="215.5"/>
	<linearGradient id="SVGID_11_" gradientUnits="userSpaceOnUse" x1="79" y1="215.5" x2="100" y2="215.5">
		<stop  offset="0" style="stop-color:#FFFFFF"/>
		<stop  offset="0" style="stop-color:#000000"/>
	</linearGradient>
	<line class="st15" x1="79" y1="215.5" x2="100" y2="215.5"/>
</g>
<g>
	<line class="st1" x1="79" y1="188.5" x2="100" y2="188.5"/>
	<linearGradient id="SVGID_12_" gradientUnits="userSpaceOnUse" x1="79" y1="188.5" x2="100" y2="188.5">
		<stop  offset="0" style="stop-color:#FFFFFF"/>
		<stop  offset="0" style="stop-color:#000000"/>
	</linearGradient>
	<line class="st16" x1="79" y1="188.5" x2="100" y2="188.5"/>
</g>
<g>
	<path class="st1" d="M105,161.5"/>
	<linearGradient id="SVGID_13_" gradientUnits="userSpaceOnUse" x1="105" y1="161.5" x2="105" y2="161.5">
		<stop  offset="0" style="stop-color:#FFFFFF"/>
		<stop  offset="0" style="stop-color:#000000"/>
	</linearGradient>
	<path class="st17" d="M105,161.5"/>
</g>
<g>
	<line class="st1" x1="79" y1="134.5" x2="100" y2="134.5"/>
	<linearGradient id="SVGID_14_" gradientUnits="userSpaceOnUse" x1="79" y1="134.5" x2="100" y2="134.5">
		<stop  offset="0" style="stop-color:#FFFFFF"/>
		<stop  offset="0" style="stop-color:#000000"/>
	</linearGradient>
	<line class="st18" x1="79" y1="134.5" x2="100" y2="134.5"/>
</g>
<g>
	<line class="st1" x1="79" y1="107.5" x2="100" y2="107.5"/>
	<linearGradient id="SVGID_15_" gradientUnits="userSpaceOnUse" x1="79" y1="107.5" x2="100" y2="107.5">
		<stop  offset="0" style="stop-color:#FFFFFF"/>
		<stop  offset="0" style="stop-color:#000000"/>
	</linearGradient>
	<line class="st19" x1="79" y1="107.5" x2="100" y2="107.5"/>
</g>
<g>
	<line class="st1" x1="79" y1="79.5" x2="100" y2="79.5"/>
	<linearGradient id="SVGID_16_" gradientUnits="userSpaceOnUse" x1="79" y1="79.5" x2="100" y2="79.5">
		<stop  offset="0" style="stop-color:#FFFFFF"/>
		<stop  offset="0" style="stop-color:#000000"/>
	</linearGradient>
	<line class="st20" x1="79" y1="79.5" x2="100" y2="79.5"/>
</g>
<g>
	<path class="st1" d="M101,53.5"/>
	<linearGradient id="SVGID_17_" gradientUnits="userSpaceOnUse" x1="101" y1="53.5" x2="101" y2="53.5">
		<stop  offset="0" style="stop-color:#FFFFFF"/>
		<stop  offset="0" style="stop-color:#000000"/>
	</linearGradient>
	<path class="st21" d="M101,53.5"/>
</g>
<g>
	<path class="st1" d="M80,53.5"/>
	<linearGradient id="SVGID_18_" gradientUnits="userSpaceOnUse" x1="80" y1="53.5" x2="80" y2="53.5">
		<stop  offset="0" style="stop-color:#FFFFFF"/>
		<stop  offset="0" style="stop-color:#000000"/>
	</linearGradient>
	<path class="st22" d="M80,53.5"/>
</g>
<text transform="matrix(1.1395 0 0 1 85.6172 429.8145)" class="st4 st5" fill="white">45 ºF</text>
<text transform="matrix(1.1395 0 0 1 85.6172 402.8145)" class="st4 st5" fill="white">50 ºF</text>
<text transform="matrix(1.1395 0 0 1 85.6172 375.8145)" class="st4 st5" fill="white">55 ºF</text>
<text transform="matrix(1.1395 0 0 1 85.6172 348.8145)" class="st4 st5" fill="white">60 ºF</text>
<text transform="matrix(1.1395 0 0 1 85.6172 321.8145)" class="st4 st5" fill="white">65 ºF</text>
<text transform="matrix(1.1395 0 0 1 85.6172 294.8145)" class="st4 st5" fill="white">70 ºF</text>
<text transform="matrix(1.1395 0 0 1 83.6172 267.8145)" class="st4 st5" fill="white"> 75 ºF</text>
<text transform="matrix(1.1395 0 0 1 83.6172 240.8145)" class="st4 st5" fill="white"> 80 ºF</text>
<text transform="matrix(1.1395 0 0 1 83.6172 213.8145)" class="st4 st5" fill="white"> 85 ºF</text>
<text transform="matrix(1.1395 0 0 1 83.6172 186.8145)" class="st4 st5" fill="white"> 90 ºF</text>
<text transform="matrix(1.1395 0 0 1 83.6172 159.8145)" class="st4 st5" fill="white"> 95 ºF</text>
<text transform="matrix(1.1395 0 0 1 79.6172 132.8145)" class="st4 st5" fill="white">100 ºF</text>
<text transform="matrix(1.1395 0 0 1 79.6172 105.8145)" class="st4 st5" fill="white">105 ºF</text>
<text transform="matrix(1.1395 0 0 1 79.6172 77.8145)" class="st4 st5" fill="white">110 ºF</text>
<text transform="matrix(1.1395 0 0 1 79.6172 51.8145)" class="st4 st5" fill="white">115 ºF</text>
<g>
	<line class="st1" x1="79" y1="26.5" x2="100" y2="26.5"/>
	<linearGradient id="SVGID_19_" gradientUnits="userSpaceOnUse" x1="79" y1="26.5" x2="100" y2="26.5">
		<stop  offset="0" style="stop-color:#FFFFFF"/>
		<stop  offset="0" style="stop-color:#000000"/>
	</linearGradient>
	<line class="st23" x1="79" y1="26.5" x2="100" y2="26.5"/>
</g>
<text transform="matrix(1.1395 0 0 1 79.6172 24.8145)" class="st4 st5" fill="white">120 ºF</text>
<g>
	<line class="st1" x1="79" y1="161.5" x2="100" y2="161.5"/>
	<linearGradient id="SVGID_20_" gradientUnits="userSpaceOnUse" x1="79" y1="161.5" x2="100" y2="161.5">
		<stop  offset="0" style="stop-color:#FFFFFF"/>
		<stop  offset="0" style="stop-color:#000000"/>
	</linearGradient>
	<line class="st24" x1="79" y1="161.5" x2="100" y2="161.5"/>
</g>
<g>
	<line class="st1" x1="79" y1="53.5" x2="100" y2="53.5"/>
	<linearGradient id="SVGID_21_" gradientUnits="userSpaceOnUse" x1="79" y1="53.5" x2="100" y2="53.5">
		<stop  offset="0" style="stop-color:#FFFFFF"/>
		<stop  offset="0" style="stop-color:#000000"/>
	</linearGradient>
	<line class="st25" x1="79" y1="53.5" x2="100" y2="53.5"/>
</g>
</svg>
