
<svg width="100%" height="100%" viewBox="0 0 500 500" version="1.1" xmlns="http://www.w3.org/2000/svg" xmlns:xlink="http://www.w3.org/1999/xlink" xml:space="preserve" xmlns:serif="http://www.serif.com/" style="fill-rule:evenodd;clip-rule:evenodd;stroke-linejoin:round;stroke-miterlimit:2;">
    <g transform="matrix(5.55137,0,0,5.33804,-374.955,-982.512)">
        <g id="XMLID_1_">
            <path id="XMLID_15_" d="M92.8,215.3L93.1,215.6C102.2,223.2 112.1,222.5 119.6,217.5C124.3,214.4 145.7,200.1 157.8,192.1L157.8,184.1L67.7,184.1L67.7,205.3C73.2,204.4 82.1,205.3 92.8,215.3M126.7,250.6L116.1,240.4C114.6,239 113.3,238 113.1,237.8C104.4,231.7 96.3,233.5 92.8,234.8C91.7,235.2 90.7,235.8 90,236.3L67.8,251.2L67.8,278.1L157.9,278.1L157.9,258.7C155.8,260 143.6,266.6 126.7,250.6M92,217.7C91.5,217.3 91,216.8 90.5,216.4C79.9,208.2 69.8,212.2 67.7,213.2L67.7,222.5L72.9,219C72.9,219 80.9,213 93.4,219.2L92,217.7M104.5,229.7C104,229.3 103.6,228.9 103.1,228.4C93.7,220.4 84.5,222.4 80.8,223.8C79.7,224.2 78.7,224.8 78,225.3L67.8,232.1L67.8,241.6L84.8,230.1C84.8,230.1 92.7,224.2 105.1,230.1L104.5,229.7M157.8,239.7C154.3,242.1 150.7,244.5 149.2,245.5C146,247.6 138.6,253 126.2,247.1L127.7,248.5C128.2,249 128.9,249.6 129.6,250.1C138.5,256.7 147.9,255.8 155,251.1C156,250.4 156.9,249.9 157.7,249.3L157.8,239.7M157.8,220.6C150,225.8 139.5,232.9 137.5,234.2C134.3,236.3 126.8,241.7 114.7,236L116.1,237.3C116.3,237.4 116.4,237.6 116.6,237.7C126,245.6 136.3,244.4 143.4,239.7C147.4,237 153.1,233.2 157.8,230L157.8,220.6M157.8,201.6C146.6,209.1 128.2,221.5 125.9,222.9C122.7,225.1 115,230.5 103.1,224.8L104.5,226.2C105.4,227 106.5,228 107.8,228.8C116.1,234.1 124.7,233.1 131.7,228.4C136.8,225 149.2,216.8 157.7,211.1L157.7,201.6" style="fill:rgb(0,113,80);fill-rule:nonzero;"/>
        </g>
    </g>
</svg>
