<svg width="100%" height="100%" viewBox="0 0 500 500" version="1.1" xmlns="http://www.w3.org/2000/svg" xmlns:xlink="http://www.w3.org/1999/xlink" xml:space="preserve" xmlns:serif="http://www.serif.com/" style="fill-rule:evenodd;clip-rule:evenodd;stroke-linejoin:round;stroke-miterlimit:2;">
    <g id="XMLID_1_" transform="matrix(1,0,0,1,113.68,13.4651)">
        <g transform="matrix(1.08778,0,0,1.75759,-181.142,-108.85)">
            <path d="M521.372,78.866C521.372,72.41 517.229,66.219 509.853,61.654C502.477,57.089 492.474,54.525 482.043,54.525L167.124,54.525C139.377,54.525 112.765,61.347 93.145,73.49C73.524,85.633 62.502,102.103 62.502,119.276L62.502,257.388C62.502,301.944 120.863,338.064 192.856,338.064L432.551,338.064C456.108,338.064 478.7,332.273 495.357,321.964C512.014,311.654 521.372,297.672 521.372,283.092L521.372,78.866Z"/>
        </g>
        <g id="XMLID_15_" transform="matrix(5.33438,0,0,5.15117,-465.915,-955.05)">
            <path d="M92.8,215.3L93.1,215.6C102.2,223.2 112.1,222.5 119.6,217.5C124.3,214.4 145.7,200.1 157.8,192.1L157.8,192.1C157.8,187.682 154.341,184.1 150.075,184.1L88.172,184.1C76.866,184.1 67.7,193.591 67.7,205.3L67.7,205.3C73.2,204.4 82.1,205.3 92.8,215.3M126.7,250.6L116.1,240.4C114.6,239 113.3,238 113.1,237.8C104.4,231.7 96.3,233.5 92.8,234.8C91.7,235.2 90.7,235.8 90,236.3L67.8,251.2L67.8,251.2C67.8,266.057 79.43,278.1 93.776,278.1L139.166,278.1C144.135,278.1 148.9,276.056 152.413,272.418C155.926,268.78 157.9,263.845 157.9,258.7L157.9,258.7C155.8,260 143.6,266.6 126.7,250.6M92,217.7C91.5,217.3 91,216.8 90.5,216.4C79.9,208.2 69.8,212.2 67.7,213.2L67.7,222.5L72.9,219C72.9,219 80.9,213 93.4,219.2L92,217.7M104.5,229.7C104,229.3 103.6,228.9 103.1,228.4C93.7,220.4 84.5,222.4 80.8,223.8C79.7,224.2 78.7,224.8 78,225.3L67.8,232.1L67.8,241.6L84.8,230.1C84.8,230.1 92.7,224.2 105.1,230.1L104.5,229.7M157.8,239.7C154.3,242.1 150.7,244.5 149.2,245.5C146,247.6 138.6,253 126.2,247.1L127.7,248.5C128.2,249 128.9,249.6 129.6,250.1C138.5,256.7 147.9,255.8 155,251.1C156,250.4 156.9,249.9 157.7,249.3L157.8,239.7M157.8,220.6C150,225.8 139.5,232.9 137.5,234.2C134.3,236.3 126.8,241.7 114.7,236L116.1,237.3C116.3,237.4 116.4,237.6 116.6,237.7C126,245.6 136.3,244.4 143.4,239.7C147.4,237 153.1,233.2 157.8,230L157.8,220.6M157.8,201.6C146.6,209.1 128.2,221.5 125.9,222.9C122.7,225.1 115,230.5 103.1,224.8L104.5,226.2C105.4,227 106.5,228 107.8,228.8C116.1,234.1 124.7,233.1 131.7,228.4C136.8,225 149.2,216.8 157.7,211.1L157.7,201.6" style="fill:rgb(93,185,93);fill-rule:nonzero;"/>
        </g>
    </g>
</svg>
